# xmcd CD database file
#
# Track frame offsets:
#	150
#	18567
#	37145
#	47866
#	66720
#	78400
#	95484
#	113746
#	134792
#	150897
#	170794
#	185732
#	203976
#	223216
#	243824
#	264369
#	283407
#
# Disc length: 4032 seconds
#
# Revision: 0
# Processed by: cddbd v1.5.2PL0 Copyright (c) Steve Scherf et al.
# Submitted via: CDex 1.70beta2
#
DISCID=0d0fbe11
DTITLE=Jelly Roll Morton - The Library of Congress Recordings
DYEAR=2007
DGENRE=Jazz
TTITLE0=I'm Alabama Bound
TTITLE1=King Porter Stomp
TTITLE2=Jelly Roll's Background
TTITLE3=Mr. Jelly Lord
TTITLE4=Stomping Grounds
TTITLE5=Anamule Dance, The
TTITLE6=Tiger Rag - Panama
TTITLE7=Right Tempo Is the Accurate Tempo, The
TTITLE8=Maple Leaf Rag
TTITLE9=Jazz Discords And Story Of Kansas City Stomp - Kansas City Stomp
TTITLE10=Kansas City Stomp
TTITLE11=Wolverine Blues, Concluded
TTITLE12=Spanish Tinge, The
TTITLE13=Crave, The
TTITLE14=Sporting Attire and Shooting the Agate
TTITLE15=Funeral Marches
TTITLE16=How Jelly Roll Got His Name
EXTD=YEAR: 2007
EXTT0=
EXTT1=
EXTT2=
EXTT3=
EXTT4=
EXTT5=
EXTT6=
EXTT7=
EXTT8=
EXTT9=
EXTT10=
EXTT11=
EXTT12=
EXTT13=
EXTT14=
EXTT15=
EXTT16=
PLAYORDER=
